<svg width="137" height="26" viewBox="0 0 137 26" fill="none" xmlns="http://www.w3.org/2000/svg">
<path d="M0.36 25V1.36H9.56L10.16 5.68L10.76 1.36H19.96V25H0.36ZM1.08 24.28H6.76V14.8L7.96 24.28H12.4L13.6 14.8V24.28H19.24V2.08H11.4L10.16 10.72L8.96 2.08H1.08V24.28ZM1.44 23.92V2.44H8.64L10.16 13.4L11.72 2.44H18.92V23.92H13.96V8.96L12.04 23.92H8.28L6.4 8.96V23.92H1.44ZM27.8725 25.44C26.2458 25.44 24.8858 25.2267 23.7925 24.8C22.7258 24.3467 21.9258 23.56 21.3925 22.44C20.8592 21.2933 20.5925 19.68 20.5925 17.6V6.92C20.5925 4.76 21.2592 3.22666 22.5925 2.32C23.9258 1.38666 25.6858 0.919998 27.8725 0.919998C30.0592 0.919998 31.7658 1.37333 32.9925 2.28C34.2458 3.18667 34.8725 4.73333 34.8725 6.92V17.56C34.8725 19.6667 34.6192 21.2933 34.1125 22.44C33.6325 23.56 32.8725 24.3467 31.8325 24.8C30.8192 25.2267 29.4992 25.44 27.8725 25.44ZM27.8725 24.76C29.3392 24.76 30.5258 24.56 31.4325 24.16C32.3658 23.76 33.0592 23.04 33.5125 22C33.9658 20.9333 34.1925 19.4533 34.1925 17.56V6.92C34.1925 4.97333 33.6325 3.6 32.5125 2.8C31.3925 2 29.8458 1.6 27.8725 1.6C25.8992 1.6 24.2992 2 23.0725 2.8C21.8725 3.6 21.2725 4.97333 21.2725 6.92V17.6C21.2725 19.4933 21.5125 20.96 21.9925 22C22.4992 23.04 23.2325 23.76 24.1925 24.16C25.1792 24.56 26.4058 24.76 27.8725 24.76ZM27.8725 24.4C26.4592 24.4 25.2858 24.2133 24.3525 23.84C23.4458 23.4667 22.7658 22.7867 22.3125 21.8C21.8592 20.8133 21.6325 19.4133 21.6325 17.6V6.92C21.6325 5.10667 22.1925 3.82667 23.3125 3.08C24.4592 2.33333 25.9792 1.96 27.8725 1.96C29.7392 1.96 31.1925 2.33333 32.2325 3.08C33.2992 3.8 33.8325 5.08 33.8325 6.92V17.56C33.8325 19.3733 33.6192 20.7733 33.1925 21.76C32.7925 22.7467 32.1525 23.44 31.2725 23.84C30.4192 24.2133 29.2858 24.4 27.8725 24.4ZM27.8725 21C28.0592 21 28.1925 20.9467 28.2725 20.84C28.3525 20.7067 28.3925 20.4267 28.3925 20V6.56C28.3925 6.18667 28.3525 5.93333 28.2725 5.8C28.2192 5.64 28.0858 5.56 27.8725 5.56C27.6858 5.56 27.5392 5.64 27.4325 5.8C27.3525 5.93333 27.3125 6.18667 27.3125 6.56V20C27.3125 20.6667 27.4992 21 27.8725 21ZM27.8725 20.68C27.7125 20.68 27.6325 20.4933 27.6325 20.12V6.4C27.6325 6.08 27.7125 5.92 27.8725 5.92C28.0058 5.92 28.0725 6.08 28.0725 6.4V20.12C28.0725 20.4933 28.0058 20.68 27.8725 20.68ZM38.2838 25L34.9638 1.36H42.9238L43.2838 6.08L43.7638 1.36H51.4438L48.0838 25H38.2838ZM38.8838 24.28H47.4838L50.6438 2.08H44.3638L43.2838 14L42.2438 2.08H35.7638L38.8838 24.28ZM39.2038 23.92L36.2038 2.44H41.9238L43.2038 17.32L43.2438 18.2L43.2838 17.32L44.6838 2.44H50.2438L47.1638 23.92H39.2038ZM51.9225 25V1.36H58.2825V25H51.9225ZM52.5225 24.36H57.6425V2H52.5225V24.36ZM52.8425 24.04V2.32H57.3625V24.04H52.8425ZM58.9928 25V1.36H70.4328V7.56H66.4328V9.56H70.0728V16.28H66.4328V18.88H70.4328V25H58.9928ZM59.6728 24.36H69.7528V19.64H65.7928V15.56H69.3928V10.28H65.7928V6.84H69.7528V2H59.6728V24.36ZM59.9928 24.04V2.32H69.4328V6.48H65.4728V10.64H69.0728V15.2H65.4728V20H69.4328V24.04H59.9928ZM71.0241 25V1.36H80.0241C81.8907 1.36 83.2374 1.8 84.0641 2.68C84.8907 3.56 85.3041 4.70667 85.3041 6.12V9.68C85.3041 10.96 85.1574 12.1467 84.8641 13.24C84.5707 14.3333 84.0507 15.2133 83.3041 15.88C82.5841 16.5467 81.5841 16.88 80.3041 16.88H78.7841V25H71.0241ZM71.7441 24.28H78.1041V16.12H80.3041C81.4241 16.12 82.2907 15.8267 82.9041 15.24C83.5441 14.6533 83.9841 13.88 84.2241 12.92C84.4907 11.9333 84.6241 10.8533 84.6241 9.68V6.12C84.6241 4.92 84.2641 3.94667 83.5441 3.2C82.8241 2.45333 81.6507 2.08 80.0241 2.08H71.7441V24.28ZM72.0641 23.92V2.44H80.0241C81.5441 2.44 82.6374 2.78667 83.3041 3.48C83.9707 4.14667 84.3041 5.02667 84.3041 6.12V9.68C84.3041 10.7733 84.1841 11.7867 83.9441 12.72C83.7041 13.6267 83.2907 14.36 82.7041 14.92C82.1441 15.48 81.3441 15.76 80.3041 15.76H77.7441V23.92H72.0641ZM77.7441 12.64H78.1041C78.3974 12.64 78.5974 12.4533 78.7041 12.08C78.8107 11.68 78.8641 10.9467 78.8641 9.88V7.6C78.8641 6.66667 78.8107 6.08 78.7041 5.84C78.5974 5.6 78.3974 5.48 78.1041 5.48H77.7441V12.64ZM78.0641 12.28V5.88H78.2241C78.3574 5.88 78.4374 6.01333 78.4641 6.28C78.5174 6.52 78.5441 7.10667 78.5441 8.04V9.88C78.5441 10.8933 78.5041 11.5467 78.4241 11.84C78.3441 12.1333 78.2774 12.28 78.2241 12.28H78.0641ZM85.9069 25V1.36H97.3469V7.56H93.3469V9.56H96.9869V16.28H93.3469V18.88H97.3469V25H85.9069ZM86.5869 24.36H96.6669V19.64H92.7069V15.56H96.3069V10.28H92.7069V6.84H96.6669V2H86.5869V24.36ZM86.9069 24.04V2.32H96.3469V6.48H92.3869V10.64H95.9869V15.2H92.3869V20H96.3469V24.04H86.9069ZM97.9381 25V1.36H106.938C108.805 1.36 110.151 1.8 110.978 2.68C111.805 3.56 112.218 4.70667 112.218 6.12V19.36C112.218 21.4933 111.671 22.9733 110.578 23.8C109.511 24.6 108.018 25 106.098 25H97.9381ZM98.6581 24.28H106.098C107.831 24.28 109.165 23.92 110.098 23.2C111.058 22.4533 111.538 21.1733 111.538 19.36V6.12C111.538 4.92 111.178 3.94667 110.458 3.2C109.738 2.45333 108.565 2.08 106.938 2.08H98.6581V24.28ZM98.9781 23.92V2.44H106.938C108.458 2.44 109.551 2.78667 110.218 3.48C110.885 4.14667 111.218 5.02667 111.218 6.12V19.36C111.218 21.0933 110.765 22.2933 109.858 22.96C108.951 23.6 107.698 23.92 106.098 23.92H98.9781ZM104.658 21H105.178C105.391 21 105.538 20.92 105.618 20.76C105.725 20.5733 105.778 20.36 105.778 20.12V6.56C105.778 5.94667 105.551 5.64 105.098 5.64H104.658V21ZM105.018 20.64V6H105.178C105.338 6 105.418 6.17333 105.418 6.52V20.12C105.418 20.4667 105.325 20.64 105.138 20.64H105.018ZM112.86 25V1.36H119.22V25H112.86ZM113.46 24.36H118.58V2H113.46V24.36ZM113.78 24.04V2.32H118.3V24.04H113.78ZM119.61 25L122.89 1.36H132.89L136.09 25H119.61ZM120.41 24.28H127.17L127.41 21.16H128.01L128.33 24.28H135.29L132.29 2.08H123.49L120.41 24.28ZM120.81 23.92L123.77 2.44H131.97L134.85 23.92H128.61L128.33 20.8H127.05L126.85 23.92H120.81ZM127.09 18H128.33L127.73 7L127.09 18ZM127.45 17.64L127.73 13.36L128.01 17.64H127.45Z" fill="#5254FD"/>
</svg>
